<?xml version="1.0" encoding="UTF-8"?>
<svg xmlns="http://www.w3.org/2000/svg" version="1.1" viewBox="0 0 358.6 357.1">
  <defs>
    <style>
      .cls-1 {
        fill: #393939;
      }
    </style>
  </defs>
  <!-- Generator: Adobe Illustrator 28.7.1, SVG Export Plug-In . SVG Version: 1.2.0 Build 142)  -->
  <g>
    <g id="Ebene_3">
      <path class="cls-1" d="M74.1,105.7c0-1.4-1.4-2.4-2.7-1.9-7.2,2.8-26.9,10.4-34.3,13.5C26.9,121.2,0,131.9,0,159.5s27,17.3,27,17.3c0,0,10-3.5,10-11.1,0-.6-10.5,9.6-10.5-14.2s0-22.5,11.3-27c9.7-3.9,9.6-3.9,9.6,18.6,0,0,0,93.8,0,143.8-4.1,1.1-7.8,2.5-10.5,3.6-10.1,3.8-37.1,14.1-37.1,44.4s26.8,21.3,37.9,17c8.9-3.4,33.4-13,36-40.8.2-1.5.2-3.1.2-5,0-27.7,0-177.7,0-200.4h0ZM37.6,345.3c-11.2,4.3-11.1,3.5-11.1-20.3s0-22.5,11.3-27c6.5-2.6,9.7,3.6,9.7,18.6,0,23.8-.3,25-10,28.7h0Z"/>
      <path class="cls-1" d="M166.6,69.8c0-1.4-1.4-2.4-2.7-1.9-7.2,2.8-26.9,10.4-34.4,13.5-10.1,3.8-37,14.5-37,42.1s27,17.3,27,17.3c0,0,10-3.5,10-11.1,0-.6-10.5,9.6-10.5-14.2s0-22.5,11.3-26.9c9.7-3.9,9.6-3.9,9.6,18.6,0,0,0,93.8,0,143.8-4.1,1.1-7.8,2.5-10.5,3.6-10.1,3.8-37.1,14.1-37.1,44.4s26.8,21.3,37.9,17c8.9-3.4,33.4-13,36-40.8.2-1.5.2-3.1.2-5,0-27.7,0-177.7,0-200.4h0ZM130.1,309.4c-11.2,4.3-11.1,3.5-11.1-20.3s0-22.5,11.3-27c6.5-2.6,9.7,3.6,9.7,18.6,0,23.8-.3,25-10,28.7h0Z"/>
      <path class="cls-1" d="M88.6,203.9v8.9c0,1.4,1.4,2.4,2.7,1.9l28-11c.8-.3,1.3-1,1.3-1.9v-8.9c0-1.4-1.4-2.4-2.7-1.9l-28,11c-.8.3-1.3,1-1.3,1.9h0Z"/>
      <path class="cls-1" d="M263,30.9c0-1.4-1.4-2.4-2.7-1.9-7.2,2.8-26.9,10.4-34.4,13.5-10.1,3.8-37,14.5-37,42.1s0,207.1,0,207.1c0,0,26.9-10.9,26.9-42.6,0,0-.1-40.9-.2-83.3,0-.8.5-1.6,1.3-1.9l16.8-6.6c1.3-.5,2.7.5,2.7,1.9,0,51.6,0,107.2,0,113.8,0,0,26.5-10.1,26.5-41.8,0-27.7,0-177.7,0-200.4h0ZM218.4,150.3c-1.3.5-2.7-.5-2.7-1.9,0-32.2-.2-62.1-.2-71.7,0-22.5,0-22.5,11.3-26.9,9.7-3.9,9.6-3.9,9.6,18.6,0,0,0,33.5,0,73.4,0,.8-.5,1.6-1.3,1.9l-16.8,6.6h0Z"/>
      <path class="cls-1" d="M358.1,132.6c-.1-14.2-12.9-24.6-26.1-19.4,1.7-.6,26.5-10.3,26.5-40.8,0-7.1-.3-29.1-.5-52.2-.1-14.3-14.5-24-27.8-18.7-4,1.6-7.5,3-9.8,4-10.1,3.8-35.9,13.8-35.9,41.3s0,208.1,0,208.1c0,0,26.9-10.9,26.9-42.6,0,0-.1-40.1-.2-82.1,0-.8.5-1.6,1.2-1.9l9.9-4c9.7-3.9,9.6-3.9,9.6,18.5,0,50.1,0,86.9,0,93.3,0,0,26.5-10.1,26.5-41.8,0-7.1-.3-38.6-.5-61.8h0ZM314.1,114.6c-1.3.5-2.7-.5-2.7-1.9,0-33.1-.2-64.1-.2-73.9,0-22.5,0-22.5,11.3-26.9,9.7-3.9,9.6-3.9,9.6,18.5s0,44.1,0,58c0,11.6-7.1,22-17.9,26.2h0Z"/>
    </g>
  </g>
</svg>