<?xml version="1.0" encoding="UTF-8"?>
<svg id="Ebene_3" xmlns="http://www.w3.org/2000/svg" xmlns:xlink="http://www.w3.org/1999/xlink" viewBox="0 0 358.64 357.11">
  <defs>
    <linearGradient id="Neues_Verlaufsfeld_2" data-name="Neues Verlaufsfeld 2" x1="-40.99" y1="193.41" x2="304.85" y2="346.38" gradientUnits="userSpaceOnUse">
      <stop offset="0" stop-color="#ffffe6"/>
      <stop offset=".14" stop-color="#ffff8c"/>
      <stop offset=".29" stop-color="#e4fdee"/>
      <stop offset=".44" stop-color="#84ffdd"/>
      <stop offset=".58" stop-color="#ffedff"/>
      <stop offset=".71" stop-color="#ffa4ff"/>
      <stop offset=".86" stop-color="#e1f7ff"/>
      <stop offset="1" stop-color="#84eeff"/>
    </linearGradient>
    <linearGradient id="Neues_Verlaufsfeld_3" data-name="Neues Verlaufsfeld 3" x1="-3" y1="230.41" x2="77.13" y2="230.41" gradientUnits="userSpaceOnUse">
      <stop offset="0" stop-color="#ffffe6"/>
      <stop offset=".14" stop-color="#e4fdee"/>
      <stop offset=".29" stop-color="#ffedff"/>
      <stop offset=".45" stop-color="#e1f7ff"/>
      <stop offset=".6" stop-color="#ffffe6"/>
      <stop offset=".75" stop-color="#e4fdee"/>
      <stop offset=".88" stop-color="#ffedff"/>
      <stop offset="1" stop-color="#e1f7ff"/>
    </linearGradient>
    <linearGradient id="Neues_Verlaufsfeld_2-2" data-name="Neues Verlaufsfeld 2" x1="-12.58" y1="129.18" x2="333.27" y2="282.14" xlink:href="#Neues_Verlaufsfeld_2"/>
    <linearGradient id="Neues_Verlaufsfeld_3-2" data-name="Neues Verlaufsfeld 3" x1="90.45" y1="194.5" x2="168.58" y2="194.5" xlink:href="#Neues_Verlaufsfeld_3"/>
    <linearGradient id="Neues_Verlaufsfeld_2-3" data-name="Neues Verlaufsfeld 2" x1="-20.67" y1="147.47" x2="325.17" y2="300.44" xlink:href="#Neues_Verlaufsfeld_2"/>
    <linearGradient id="Neues_Verlaufsfeld_3-3" data-name="Neues Verlaufsfeld 3" x1="86.57" y1="202.85" x2="122.53" y2="202.85" xlink:href="#Neues_Verlaufsfeld_3"/>
    <linearGradient id="Neues_Verlaufsfeld_2-4" data-name="Neues Verlaufsfeld 2" x1="14.81" y1="67.26" x2="360.65" y2="220.23" xlink:href="#Neues_Verlaufsfeld_2"/>
    <linearGradient id="Neues_Verlaufsfeld_3-4" data-name="Neues Verlaufsfeld 3" x1="186.92" y1="160.81" x2="265.01" y2="160.81" xlink:href="#Neues_Verlaufsfeld_3"/>
    <linearGradient id="Neues_Verlaufsfeld_2-5" data-name="Neues Verlaufsfeld 2" x1="41.41" y1="7.12" x2="387.25" y2="160.09" xlink:href="#Neues_Verlaufsfeld_2"/>
    <linearGradient id="Neues_Verlaufsfeld_3-5" data-name="Neues Verlaufsfeld 3" x1="282.69" y1="127.9" x2="360.64" y2="127.9" xlink:href="#Neues_Verlaufsfeld_3"/>
  </defs>
  <g>
    <path d="M74.13,105.71c0-1.4-1.4-2.36-2.71-1.86-7.24,2.77-26.94,10.36-34.35,13.52C26.95,121.19.04,131.91.04,159.51s27,17.29,27,17.29c0,0,10.04-3.48,10.04-11.06-.07-.58-10.49,9.61-10.49-14.18,0-22.5.07-22.5,11.3-26.95,9.71-3.86,9.65-3.86,9.65,18.56,0,0,.03,93.84.05,143.79-4.08,1.09-7.82,2.54-10.51,3.56-10.11,3.82-37.07,14.14-37.07,44.37,0,32,26.82,21.28,37.85,17.05,8.91-3.42,33.37-13.04,36.01-40.8.17-1.49.25-3.15.24-4.99-.01-27.69.03-177.67.03-200.44ZM37.63,345.34c-11.17,4.29-11.08,3.47-11.08-20.32,0-22.5.07-22.5,11.3-26.95q9.71-3.86,9.74,18.56c0,23.83-.28,24.99-9.96,28.71Z" style="fill: url(#Neues_Verlaufsfeld_2);"/>
    <path d="M72.14,103.72c1.06,0,1.99.85,1.99,2,0,22.77-.05,172.75-.03,200.44,0,1.84-.08,3.5-.24,4.99-2.64,27.76-27.1,37.38-36.01,40.8-5,1.92-13.24,5.17-20.76,5.17C8.01,357.11,0,352.38,0,334.89,0,304.67,26.95,294.34,37.07,290.52c2.69-1.02,6.44-2.47,10.51-3.56-.01-49.95-.05-143.79-.05-143.79,0-15.85.03-20.49-3.38-20.49-1.42,0-3.42.8-6.27,1.93-11.23,4.46-11.3,4.46-11.3,26.95,0,13.02,3.12,15.86,5.96,15.86,2.2,0,4.23-1.71,4.5-1.71.02,0,.03,0,.03.02,0,7.58-10.04,11.06-10.04,11.06,0,0-5.05,1.99-10.78,1.99-7.52,0-16.22-3.43-16.22-19.28,0-27.6,26.92-38.32,37.03-42.14,7.41-3.16,27.12-10.75,34.35-13.52.24-.09.48-.14.72-.14M30.62,347.35c1.61,0,3.87-.8,7.01-2.01,9.68-3.72,9.96-4.88,9.96-28.71,0-15.85-.01-20.49-3.45-20.49-1.43,0-3.44.8-6.29,1.93-11.23,4.46-11.3,4.46-11.3,26.95,0,17.1-.04,22.33,4.08,22.33M72.14,100.72c-.61,0-1.22.11-1.79.33-7.88,3.02-26.99,10.38-34.4,13.54-4.36,1.65-14.46,5.48-23.1,12.63-10.49,8.67-15.81,19.54-15.81,32.3,0,19.39,12.04,22.28,19.22,22.28,5.96,0,11.19-1.93,11.82-2.18,1.02-.37,12-4.52,12-13.87v-.18l-.02-.18-.31-2.65-2.7-.02c-.91,0-1.54.38-2.1.72-.52.32-1.61.98-2.4.98s-2.96-2.31-2.96-12.86,0-16.21,1.2-19.07c.89-2.11,2.67-2.9,8.17-5.08l-1.03-2.82,1.11,2.79c1.96-.78,3.83-1.52,4.81-1.68.71,1.92.71,8.66.71,17.04v.42s.03,91.06.05,141.53c-3.07.93-5.85,1.98-7.99,2.8l-.58.22c-9.65,3.65-39.01,14.75-39.01,47.17,0,20.85,10.92,25.22,20.08,25.22,7.86,0,16.34-3.26,21.41-5.2l.43-.17c8.67-3.33,35.07-13.46,37.92-43.29.18-1.64.27-3.43.26-5.32-.01-28.05.03-182.86.03-200.42,0-1.36-.54-2.63-1.51-3.58-.94-.91-2.18-1.42-3.48-1.42h0ZM30.56,344.35c-1.02-1.58-1.02-9.57-1.02-18.79v-.54c0-10.11,0-16.21,1.2-19.07.89-2.11,2.67-2.9,8.17-5.08,2.04-.81,3.94-1.57,4.93-1.71.75,1.95.75,9.18.75,17.47,0,11.15-.06,17.62-1.19,20.93-.81,2.38-2.19,3.2-6.85,4.99-1.99.76-4.71,1.81-5.93,1.81-.02,0-.04,0-.06,0h0Z" style="fill: url(#Neues_Verlaufsfeld_3);"/>
  </g>
  <g>
    <path d="M166.58,69.8c0-1.4-1.4-2.36-2.71-1.86-7.24,2.77-26.94,10.36-34.35,13.52-10.11,3.82-37.03,14.54-37.03,42.14s27,17.29,27,17.29c0,0,10.04-3.48,10.04-11.06-.07-.58-10.49,9.61-10.49-14.18,0-22.5.07-22.5,11.3-26.95,9.71-3.86,9.65-3.86,9.65,18.56,0,0,.03,93.84.05,143.79-4.08,1.09-7.82,2.54-10.51,3.56-10.11,3.82-37.07,14.14-37.07,44.37,0,32,26.82,21.28,37.85,17.05,8.91-3.42,33.37-13.04,36.01-40.8.17-1.49.25-3.15.24-4.99-.01-27.69.03-177.67.03-200.44ZM130.08,309.43c-11.17,4.29-11.08,3.47-11.08-20.32,0-22.5.07-22.5,11.3-26.95q9.71-3.86,9.74,18.56c0,23.83-.28,24.99-9.96,28.71Z" style="fill: url(#Neues_Verlaufsfeld_2-2);"/>
    <path d="M164.59,67.8c1.06,0,1.99.85,1.99,2,0,22.77-.05,172.75-.03,200.44,0,1.84-.08,3.5-.24,4.99-2.64,27.76-27.1,37.38-36.01,40.8-5,1.92-13.24,5.17-20.76,5.17-9.07,0-17.08-4.73-17.08-22.22,0-30.22,26.95-40.54,37.07-44.37,2.69-1.02,6.44-2.47,10.51-3.56-.01-49.95-.05-143.79-.05-143.79,0-15.85.03-20.49-3.38-20.49-1.42,0-3.42.8-6.27,1.93-11.23,4.46-11.3,4.46-11.3,26.95,0,13.02,3.12,15.86,5.96,15.86,2.2,0,4.23-1.71,4.5-1.71.02,0,.03,0,.03.02,0,7.58-10.04,11.06-10.04,11.06,0,0-5.05,1.99-10.78,1.99-7.52,0-16.22-3.43-16.22-19.28,0-27.6,26.92-38.32,37.03-42.14,7.41-3.16,27.12-10.75,34.35-13.52.24-.09.48-.14.72-.14M123.07,311.44c1.61,0,3.87-.8,7.01-2.01,9.68-3.72,9.96-4.88,9.96-28.71,0-15.85-.01-20.49-3.45-20.49-1.43,0-3.44.8-6.29,1.93-11.23,4.46-11.3,4.46-11.3,26.95,0,17.1-.04,22.33,4.08,22.33M164.59,65.8c-.49,0-.97.09-1.44.27-7.88,3.02-26.99,10.38-34.38,13.53-4.31,1.63-14.31,5.42-22.84,12.47-10.25,8.47-15.45,19.08-15.45,31.53,0,7.95,2.37,21.28,18.22,21.28,5.84,0,10.95-1.91,11.48-2.11.85-.3,11.34-4.21,11.34-12.94v-.24s-.23-1.76-.23-1.76l-1.8-.02c-.63,0-1.07.27-1.58.58-.65.39-1.85,1.13-2.92,1.13-2.48,0-3.96-5.18-3.96-13.86,0-10.58,0-16.41,1.28-19.45,1.04-2.48,2.92-3.32,8.72-5.63l-.66-1.89.74,1.86c2.5-.99,4.47-1.78,5.5-1.78.19,0,.25.03.25.03,1.13.73,1.13,8.75,1.13,18.04v.42s.03,91.97.05,142.27c-3.32.97-6.35,2.12-8.64,2.99l-.58.22c-5.1,1.93-14.58,5.51-22.92,12.63-10.25,8.75-15.44,20.06-15.44,33.6,0,11.05,3.31,24.22,19.08,24.22,7.68,0,16.05-3.22,21.05-5.14l.43-.17c8.53-3.27,34.5-13.24,37.28-42.48.18-1.58.26-3.33.25-5.19-.01-29,.03-193.44.03-200.43,0-1.09-.43-2.11-1.21-2.86-.75-.73-1.74-1.13-2.79-1.13h0ZM123.07,309.44c-.56,0-1.14,0-1.59-2.94-.49-3.21-.49-8.64-.49-16.84v-.54c0-10.58,0-16.41,1.28-19.45,1.04-2.48,2.92-3.32,8.72-5.63,2.46-.98,4.55-1.81,5.59-1.81h0c.22,0,.68,0,1.03,2.58.42,3.03.42,8.16.42,15.92,0,23.51-.16,23.58-8.68,26.85-2.67,1.03-4.99,1.88-6.29,1.88h0Z" style="fill: url(#Neues_Verlaufsfeld_3-2);"/>
  </g>
  <g>
    <path d="M88.57,203.91v8.9c0,1.41,1.42,2.38,2.73,1.86l27.96-11c.77-.3,1.27-1.04,1.27-1.86v-8.91c0-1.41-1.42-2.38-2.73-1.86l-27.96,11.01c-.76.3-1.27,1.04-1.27,1.86Z" style="fill: url(#Neues_Verlaufsfeld_2-3);"/>
    <path d="M118.53,190.9c1.06,0,2,.85,2,2v8.91c0,.82-.5,1.56-1.27,1.86l-27.96,11c-.24.1-.49.14-.73.14-1.06,0-2-.85-2-2v-8.9c0-.82.5-1.56,1.27-1.86l27.96-11.01c.24-.1.49-.14.73-.14M118.53,188.9c-.5,0-1,.09-1.47.28l-27.96,11.01c-1.54.61-2.53,2.07-2.53,3.72v8.9c0,2.21,1.79,4,4,4,.5,0,.99-.09,1.47-.28l27.96-11c1.54-.61,2.54-2.07,2.54-3.72v-8.91c0-2.21-1.79-4-4-4h0Z" style="fill: url(#Neues_Verlaufsfeld_3-3);"/>
  </g>
  <g>
    <path d="M263.01,30.89c0-1.4-1.4-2.36-2.71-1.86-7.24,2.77-26.94,10.36-34.35,13.52-10.11,3.82-37.03,14.54-37.03,42.14s.06,207.06.06,207.06c0,0,26.94-10.86,26.94-42.57,0,0-.12-40.94-.24-83.29,0-.82.5-1.57,1.27-1.87l16.78-6.6c1.31-.51,2.72.45,2.72,1.85.01,51.58.03,107.17.03,113.79,0,0,26.53-10.12,26.51-41.75-.01-27.69.03-177.67.03-200.44ZM218.36,150.28c-1.31.52-2.73-.45-2.73-1.86-.09-32.23-.16-62.09-.16-71.68,0-22.5.07-22.5,11.3-26.95,9.71-3.86,9.65-3.86,9.65,18.56,0,0,0,33.5.02,73.44,0,.82-.5,1.57-1.27,1.87l-16.81,6.62Z" style="fill: url(#Neues_Verlaufsfeld_2-4);"/>
    <path d="M261.02,28.89c1.06,0,1.99.85,1.99,2,0,22.77-.05,172.75-.03,200.44.02,31.62-26.51,41.75-26.51,41.75,0-6.62-.01-62.21-.03-113.79,0-1.14-.94-1.99-1.99-1.99-.24,0-.49.04-.73.14l-16.78,6.6c-.77.3-1.27,1.04-1.27,1.87.12,42.35.24,83.29.24,83.29,0,31.7-26.94,42.57-26.94,42.57,0,0-.06-179.13-.06-207.06s26.92-38.32,37.03-42.14c7.41-3.16,27.12-10.75,34.35-13.52.24-.09.48-.14.72-.14M217.62,150.42c.24,0,.49-.04.73-.14l16.81-6.62c.77-.3,1.27-1.05,1.27-1.87-.01-39.94-.02-73.44-.02-73.44,0-15.85.03-20.49-3.38-20.49-1.42,0-3.42.8-6.27,1.93-11.23,4.46-11.3,4.46-11.3,26.95,0,9.58.07,39.44.16,71.68,0,1.15.94,2,2,2M261.02,26.89c-.49,0-.97.09-1.44.27-7.88,3.02-26.99,10.38-34.38,13.53-4.31,1.63-14.31,5.42-22.84,12.47-10.25,8.47-15.45,19.08-15.45,31.53,0,27.61.06,205.27.06,207.06v2.96s2.75-1.11,2.75-1.11c.29-.12,7.19-2.95,14.13-9.83,6.41-6.36,14.06-17.53,14.06-34.59,0,0-.12-40.95-.24-83.29l16.78-6.6c0,51.57.02,107.16.02,113.78v2.9l2.71-1.04c.29-.11,7.1-2.76,13.95-9.45,6.32-6.18,13.86-17.13,13.85-34.16-.01-23.61.02-134.75.03-198.9v-1.54c0-1.09-.43-2.11-1.21-2.86-.75-.73-1.74-1.13-2.79-1.13h0ZM217.63,148.41c-.11-39.29-.17-63.4-.17-71.67,0-10.58,0-16.41,1.28-19.45,1.04-2.48,2.92-3.32,8.72-5.63l.07-.03c2.5-.99,4.48-1.78,5.5-1.78h0c.19,0,.25.03.25.03,1.13.73,1.13,8.75,1.13,18.04v.42l.02,73.44-16.81,6.63h0Z" style="fill: url(#Neues_Verlaufsfeld_3-4);"/>
  </g>
  <g>
    <path d="M358.14,132.56c-.11-14.23-12.87-24.6-26.09-19.41,1.73-.63,26.55-10.28,26.54-40.8,0-7.14-.31-29.07-.5-52.2-.11-14.27-14.54-23.98-27.8-18.69-3.95,1.58-7.45,3-9.75,3.98-10.11,3.82-35.86,13.75-35.86,41.35s.06,208.06.06,208.06c0,0,26.94-10.86,26.94-42.57,0,0-.12-40.14-.24-82.15,0-.82.49-1.56,1.25-1.86l9.88-3.97c9.71-3.86,9.59-3.89,9.59,18.53.01,50.13-.05,86.87-.05,93.28,0,0,26.53-10.12,26.51-41.75,0-7.14-.31-38.65-.5-61.79ZM314.13,114.62c-1.31.51-2.73-.45-2.73-1.86-.09-33.15-.16-64.15-.16-73.93,0-22.5.07-22.5,11.3-26.95,9.71-3.86,9.59-3.89,9.59,18.53,0,24.66-.04,44.07-.08,58.04-.04,11.58-7.14,21.95-17.92,26.17h0Z" style="fill: url(#Neues_Verlaufsfeld_2-5);"/>
    <path d="M337.83,0c10.67,0,20.18,8.58,20.27,20.15.18,23.14.49,45.06.5,52.2.01,29.19-22.69,39.29-26.18,40.67-.12.04-.24.09-.35.14.08-.03.19-.07.35-.14,2.25-.84,4.47-1.23,6.63-1.23,10.4,0,19.01,9.08,19.1,20.77.18,23.14.49,54.65.5,61.79.02,31.62-26.51,41.75-26.51,41.75,0-6.41.06-43.15.05-93.28,0-15.83.06-20.47-3.32-20.47-1.41,0-3.41.8-6.27,1.94l-9.88,3.97c-.76.31-1.26,1.04-1.25,1.86.12,42.01.24,82.15.24,82.15,0,31.7-26.94,42.57-26.94,42.57,0,0-.06-180.13-.06-208.06s25.75-37.52,35.86-41.35c2.3-.98,5.79-2.4,9.75-3.98C332.8.46,335.34,0,337.83,0M313.4,114.76c.24,0,.49-.04.73-.14,10.78-4.23,17.88-14.6,17.92-26.17.04-13.97.09-33.38.08-58.04,0-15.83.06-20.47-3.32-20.47-1.41,0-3.41.8-6.27,1.94-11.23,4.46-11.3,4.46-11.3,26.95,0,9.77.08,40.78.16,73.93,0,1.15.94,2,2,2M337.83-2V0-2c-2.82,0-5.6.54-8.27,1.6-4.35,1.74-7.63,3.07-9.75,3.98-10.19,3.85-37.12,14.07-37.12,43.2,0,27.61.06,206.26.06,208.06v2.96s2.75-1.11,2.75-1.11c.29-.12,7.19-2.95,14.13-9.83,6.41-6.36,14.06-17.53,14.06-34.59,0,0-.12-40.15-.24-82.16l9.88-3.97.09-.04c2.47-.98,4.42-1.76,5.43-1.76.17,0,.24.03.24.03,1.09.8,1.09,8.6,1.09,17.63v.81c.01,38.03-.02,68.79-.04,83.57,0,4.84,0,8.16,0,9.7v2.9l2.71-1.04c.29-.11,7.1-2.76,13.95-9.45,6.32-6.18,13.86-17.13,13.85-34.16,0-4.58-.13-19.39-.27-35.07-.08-8.98-.16-18.4-.23-26.73-.05-6.12-2.26-11.84-6.22-16.11-3.3-3.55-7.49-5.78-12.03-6.44,2.04-1.46,4.23-3.27,6.37-5.49,8.19-8.51,12.34-19.32,12.34-32.15,0-3.66-.08-11.21-.19-20.76-.1-8.98-.22-20.16-.31-31.46-.1-12.21-10.09-22.14-22.27-22.14h0ZM313.41,112.76c-.12-40.67-.17-65.54-.17-73.92,0-10.58,0-16.41,1.28-19.45,1.04-2.48,2.92-3.32,8.72-5.63l.14-.06c2.47-.98,4.42-1.76,5.43-1.76.17,0,.24.03.24.03,1.09.8,1.09,8.6,1.09,17.63v.81c0,20.2-.02,39.72-.08,58.03-.03,10.82-6.57,20.36-16.64,24.32h0Z" style="fill: url(#Neues_Verlaufsfeld_3-5);"/>
  </g>
</svg>